# xmcd
#
# Track frame offsets: 
#        151
#        8968
#        14544
#        23302
#        31182
#        37875
#        45943
#        55035
#        64848
#        73702
#        82143
#        91881
#        107699
#        117221
#        127756
#        141309
#        148159
#        155328
#        163287
#        172504
#
# Disc length: 2428 seconds
#
# Revision: 0
# Processed by: cddbd v1.5.2PL0 Copyright (c) Steve Scherf et al.
# Submitted via: ExactAudioCopy v0.99pb4
#
DISCID=f7097a14
DTITLE=J. E. Mainer and His Mountaineers - Old Time Mountain Music and M
DTITLE=ore Old Time Mountain Music [CD2]
DYEAR=2007
DGENRE=Bluegrass
TTITLE0=Jolly Blacksmith
TTITLE1=Hop Along Peter
TTITLE2=Mainer's Blues
TTITLE3=Shout Lula
TTITLE4=Wildwood Flower
TTITLE5=Down the Old Plank Road
TTITLE6=Keep My Skillet Good and Greasy
TTITLE7=Forty Years Ago
TTITLE8=Glass Number One
TTITLE9=Railroad Bill
TTITLE10=Blue Ridge Breakdown
TTITLE11=Courtin' in the Rain
TTITLE12=Old Hen Sitting in a Chimney Jamb
TTITLE13=Donkey on the Track
TTITLE14=Adam and Eve in the Garden
TTITLE15=Get Away Old Man
TTITLE16=Jay Goose is Dead
TTITLE17=Climbing the Mountain
TTITLE18=Goodbye Little Bonnie
TTITLE19=Hand Me Down My Peg and Awl
EXTD=
EXTT0=
EXTT1=
EXTT2=
EXTT3=
EXTT4=
EXTT5=
EXTT6=
EXTT7=
EXTT8=
EXTT9=
EXTT10=
EXTT11=
EXTT12=
EXTT13=
EXTT14=
EXTT15=
EXTT16=
EXTT17=
EXTT18=
EXTT19=
PLAYORDER=
